<?xml version="1.0" encoding="UTF-8"?>
<svg width="53px" height="53px" viewBox="0 0 53 53" version="1.1" xmlns="http://www.w3.org/2000/svg" xmlns:xlink="http://www.w3.org/1999/xlink">
    <!-- Generator: Sketch 64 (93537) - https://sketch.com -->
    <title>calendar</title>
    <desc>Created with Sketch.</desc>
    <defs>
        <linearGradient x1="50%" y1="0%" x2="50%" y2="100%" id="linearGradient-1">
            <stop stop-color="#000000" stop-opacity="0.05" offset="0%"></stop>
            <stop stop-color="#000000" stop-opacity="0.05" offset="100%"></stop>
        </linearGradient>
        <path d="M4.52631579,0 L2.28083884,0 C1.04111842,0 0.0349506316,1.04547122 0.0349506316,2.33319089 L0.0349506316,11.6668091 C0.0349506316,12.9545288 1.04111842,14 2.28083884,14 L4.52631579,14 C5.76603621,14 6.77179274,12.9545288 6.77179274,11.6668091 L6.77179274,2.33319089 C6.77179274,1.04547122 5.76603621,0 4.52631579,0 Z" id="path-2"></path>
        <linearGradient x1="50%" y1="0%" x2="50%" y2="99.572424%" id="linearGradient-3">
            <stop stop-color="#000000" stop-opacity="0.05" offset="0%"></stop>
            <stop stop-color="#000000" stop-opacity="0.05" offset="100%"></stop>
        </linearGradient>
        <path d="M33.7191612,0 L31.4736842,0 C30.2339638,0 29.2282073,1.04547122 29.2282073,2.33319089 L29.2282073,11.6668091 C29.2282073,12.9545288 30.2339638,14 31.4736842,14 L33.7191612,14 C34.9588816,14 35.9650494,12.9545288 35.9650494,11.6668091 L35.9650494,2.33319089 C35.9650494,1.04547122 34.9588816,0 33.7191612,0 L33.7191612,0 Z" id="path-4"></path>
    </defs>
    <g id="Page-1" stroke="none" stroke-width="1" fill="none" fill-rule="evenodd">
        <g id="Dashboard" transform="translate(-648.000000, -298.000000)" fill-rule="nonzero">
            <g id="Events" transform="translate(428.000000, 195.000000)">
                <g id="calendar" transform="translate(220.000000, 103.000000)">
                    <path d="M50.7918015,17 L2.20819852,17 C0.989463832,17 0,18.0106582 0,19.2554983 L0,46.233092 C0,49.9638952 2.97243502,53 6.625,53 L46.375,53 C50.027565,53 53,49.9638952 53,46.233092 L53,19.2554983 C53,18.0106582 52.0105362,17 50.7918015,17 Z" id="Path" fill="#ECEFF1"></path>
                    <path d="M46.375,6 L6.625,6 C2.9659653,6 0,9.11313895 0,12.953738 L0,20 L53,20 L53,12.953738 C53,9.11313895 50.0340347,6 46.375,6 Z" id="Path" fill="#CC624E"></path>
                    <g id="Group" transform="translate(9.000000, 0.000000)">
                        <g id="Path">
                            <use fill="#CC624E" xlink:href="#path-2"></use>
                            <use fill="url(#linearGradient-1)" xlink:href="#path-2"></use>
                        </g>
                        <g id="Path">
                            <use fill="#CC624E" xlink:href="#path-4"></use>
                            <use fill="url(#linearGradient-3)" xlink:href="#path-4"></use>
                        </g>
                    </g>
                </g>
            </g>
        </g>
    </g>
</svg>