<?xml version="1.0" encoding="UTF-8"?>
<svg width="48px" height="48px" viewBox="0 0 48 48" version="1.1" xmlns="http://www.w3.org/2000/svg" xmlns:xlink="http://www.w3.org/1999/xlink">
    <!-- Generator: Sketch 64 (93537) - https://sketch.com -->
    <title>tick</title>
    <desc>Created with Sketch.</desc>
    <g id="Page-1" stroke="none" stroke-width="1" fill="none" fill-rule="evenodd">
        <g id="Dashboard" transform="translate(-481.000000, -574.000000)" fill="#CC624E" fill-rule="nonzero">
            <g id="tick" transform="translate(481.000000, 574.000000)">
                <path d="M42.375,48 L5.625,48 C2.52319331,48 0,45.4768067 0,42.375 L0,5.625 C0,2.52319331 2.52319331,0 5.625,0 L42.375,0 C45.4768067,0 48,2.52319331 48,5.625 L48,42.375 C48,45.4768067 45.4768067,48 42.375,48 Z M5.47263682,3.58208955 C4.43025106,3.58208955 3.58208955,4.43025106 3.58208955,5.47263682 L3.58208955,42.5273632 C3.58208955,43.5697489 4.43025106,44.4179104 5.47263682,44.4179104 L42.5273632,44.4179104 C43.5697489,44.4179104 44.4179104,43.5697489 44.4179104,42.5273632 L44.4179104,5.47263682 C44.4179104,4.43025106 43.5697489,3.58208955 42.5273632,3.58208955 L5.47263682,3.58208955 Z M40.8358209,13.997906 L38.0272437,11.4626866 L20.5952162,31.0857751 L10.4778591,21.3916777 L7.88059701,24.1454634 L20.8127898,36.5373134 L40.8358209,13.997906 Z" id="Shape"></path>
            </g>
        </g>
    </g>
</svg>