<?xml version="1.0" encoding="UTF-8"?>
<svg width="56px" height="67px" viewBox="0 0 56 67" version="1.1" xmlns="http://www.w3.org/2000/svg" xmlns:xlink="http://www.w3.org/1999/xlink">
    <!-- Generator: Sketch 64 (93537) - https://sketch.com -->
    <title>user</title>
    <desc>Created with Sketch.</desc>
    <g id="Page-1" stroke="none" stroke-width="1" fill="none" fill-rule="evenodd">
        <g id="Dashboard" transform="translate(-145.000000, -791.000000)" fill="#CC624E" fill-rule="nonzero">
            <g id="user" transform="translate(145.000000, 791.000000)">
                <path d="M28,33 C32.3960722,33 36.2027241,31.3739904 39.3130187,28.1658748 C42.4233132,24.9582819 44,21.0335932 44,16.4994774 C44,11.9669296 42.4233132,8.04171809 39.3125119,4.83307996 C36.2017105,1.62600973 32.3955654,0 28,0 C23.603421,0 19.7977826,1.62600973 16.6874881,4.83360259 C13.5771935,8.04119546 12,11.966407 12,16.4994774 C12,21.0335932 13.5771935,24.9588045 16.6879949,28.1663974 C19.7987963,31.3734676 23.6049413,33 28,33 Z" id="Path"></path>
                <path d="M55.3204456,47.6481995 C55.0480093,46.1609505 54.6972219,44.7549882 54.2773014,43.4699528 C53.8435541,42.1417651 53.2536168,40.8301359 52.5243888,39.5731995 C51.7675074,38.268595 50.8785047,37.1325856 49.8809372,36.1977864 C48.8377929,35.2198347 47.5606196,34.4335596 46.0837282,33.8600355 C44.6119575,33.2895218 42.9809244,33.0005017 41.2362054,33.0005017 C40.5510178,33.0005017 39.8883626,33.2759741 38.6086289,34.0923553 C37.8210217,34.5956316 36.8997568,35.177686 35.8714634,35.8214581 C34.9921906,36.3703956 33.8010498,36.8847108 32.3297914,37.3503543 C30.8943797,37.8054604 29.436948,38.0362752 27.9984637,38.0362752 C26.5599795,38.0362752 25.1030598,37.8054604 23.666112,37.3503543 C22.1963897,36.8852125 21.005249,36.3708973 20.1270004,35.8219599 C19.1084368,35.1842089 18.1866598,34.6021546 17.3872743,34.0918536 C16.1090769,33.2754724 15.4459096,33 14.7607221,33 C13.015491,33 11.3849699,33.2895218 9.91371148,33.8605372 C8.43784404,34.4330579 7.16015882,35.219333 6.11599031,36.1982881 C5.11893484,37.1335892 4.22942009,38.2690969 3.47356296,39.5731995 C2.74484701,40.8301359 2.15490975,42.1412633 1.72065037,43.4704546 C1.30124181,44.75549 0.950454488,46.1609505 0.67801818,47.6481995 C0.408142331,49.1224026 0.224811197,50.5208383 0.134169826,51.805372 C0.0450646525,53.0638135 0,54.3699234 0,55.6890792 C0,59.122196 1.11381389,61.9015053 3.31020356,63.9512397 C5.47945206,65.9738784 8.34976313,67 11.8402253,67 L44.1597747,67 C47.6502369,67 50.5195238,65.9743802 52.6892844,63.9512397 C54.8861862,61.9030107 56,59.1231996 56,55.6885773 C56,54.3634002 55.9539112,53.0562869 55.864294,51.8038666 C55.7736526,50.5223435 55.5903213,49.1244097 55.3204456,47.6481995 Z" id="Path"></path>
            </g>
        </g>
    </g>
</svg>